<svg xmlns="http://www.w3.org/2000/svg" width="1400" height="430" viewBox="0 0 1400 430" role="img" aria-labelledby="title desc"><title id="title">HABLA · Aprende Python y SQL</title><desc id="desc">Aprendizaje práctico con 72 lecciones, laboratorio en el navegador y progreso persistente.</desc><rect width="1400" height="430" rx="24" fill="#f4f7fb"/><rect x="28" y="28" width="1344" height="374" rx="20" fill="#ffffff" stroke="#e1e8f0"/><path d="M1040 28h310a22 22 0 0 1 22 22v332a20 20 0 0 1-20 20h-312z" fill="#eff5ff"/><rect x="100" y="89" width="74" height="74" rx="22" fill="#2563eb"/><text x="119" y="143" font-family="Arial,sans-serif" font-weight="700" font-size="58" fill="#fff">h</text><text x="200" y="144" font-family="Arial,sans-serif" font-weight="700" font-size="52" fill="#17263b">HABLA</text><text x="100" y="226" font-family="Arial,sans-serif" font-weight="700" font-size="40" fill="#17263b">De entender código a escribirlo.</text><text x="100" y="270" font-family="Arial,sans-serif" font-size="23" fill="#53657b">Python y SQL · práctica ejecutable · progreso persistente</text><rect x="100" y="311" width="142" height="43" rx="21" fill="#edf3fe"/><text x="129" y="339" font-family="Arial,sans-serif" font-size="19" fill="#2458b4">2 cursos</text><rect x="255" y="311" width="184" height="43" rx="21" fill="#edf3fe"/><text x="283" y="339" font-family="Arial,sans-serif" font-size="19" fill="#2458b4">72 lecciones</text><rect x="452" y="311" width="193" height="43" rx="21" fill="#edf3fe"/><text x="478" y="339" font-family="Arial,sans-serif" font-size="19" fill="#2458b4">576 ejercicios</text><rect x="1070" y="102" width="258" height="218" rx="16" fill="#17263b"/><circle cx="1095" cy="124" r="5" fill="#fb7185"/><circle cx="1113" cy="124" r="5" fill="#fbbf24"/><circle cx="1131" cy="124" r="5" fill="#34d399"/><text x="1092" y="174" font-family="monospace" font-size="18" fill="#8cb4ff">SELECT conocimiento</text><text x="1092" y="206" font-family="monospace" font-size="18" fill="#bfdbfe">FROM práctica;</text><text x="1092" y="258" font-family="monospace" font-size="18" fill="#9ae6ba">resultado = aprender()</text><path d="M1258 352l17 17 32-34" fill="none" stroke="#2563eb" stroke-width="8" stroke-linecap="round" stroke-linejoin="round"/></svg>